Coordinates
version=1
nRows=34
nColumns=38
inDegrees=no

Units are S.I. units (second, meters, Newtons, ...)
If the header above contains a line with 'inDegrees', this indicates whether rotational values are in degrees (yes) or radians (no).

endheader
time	pelvis_tilt	pelvis_list	pelvis_rotation	pelvis_tx	pelvis_ty	pelvis_tz	hip_flexion_r	hip_adduction_r	hip_rotation_r	knee_angle_r	ankle_angle_r	subtalar_angle_r	mtp_angle_r	hip_flexion_l	hip_adduction_l	hip_rotation_l	knee_angle_l	ankle_angle_l	subtalar_angle_l	mtp_angle_l	lumbar_extension	lumbar_bending	lumbar_rotation	arm_flex_r	arm_add_r	arm_rot_r	elbow_flex_r	pro_sup_r	wrist_flex_r	wrist_dev_r	arm_flex_l	arm_add_l	arm_rot_l	elbow_flex_l	pro_sup_l	wrist_flex_l	wrist_dev_l
4.63	2.93016	1.27775	-1.26502	0.628435	1.7473	0.958588	-0.136182	-0.0197945	-0.00479544	0.984515	-0.38041	0	0	-0.156792	-0.0467742	-0.106396	0.24559	-0.326218	0	0	-0.382881	0.136741	0.166148	0.125412	-0.512795	-0.213482	1.76595	1.5708	0	0	0.67731	-0.223199	0.702876	1.40621	1.5708	0	0
4.64	2.92125	1.27966	-1.25745	0.627795	1.74947	0.95899	-0.126708	-0.0187562	-0.00444055	0.96891	-0.373089	0	0	-0.160356	-0.0473517	-0.103453	0.238318	-0.326494	0	0	-0.385233	0.138523	0.168809	0.126811	-0.514536	-0.216798	1.76671	1.5708	0	0	0.679723	-0.220191	0.702729	1.40581	1.5708	0	0
4.65	2.92331	1.29703	-1.26135	0.620986	1.75055	0.95926	-0.13099	-0.00952478	0.0781238	0.893224	-0.34449	0	0	-0.153234	-0.0251543	-0.0760545	0.215947	-0.337738	0	0	-0.369838	0.142087	0.183899	0.106941	-0.546	-0.233511	1.77083	1.5708	0	0	0.690719	-0.190649	0.721054	1.37528	1.5708	0	0
4.66	2.86595	1.29302	-1.21328	0.626093	1.75285	0.959885	-0.116022	-0.00627602	0.0155104	0.880039	-0.34924	0	0	-0.154938	-0.0516814	-0.0947453	0.219017	-0.334958	0	0	-0.373662	0.148766	0.189927	0.120645	-0.535461	-0.221303	1.7625	1.5708	0	0	0.692753	-0.203089	0.718861	1.38178	1.5708	0	0
4.67	2.8575	1.2945	-1.20699	0.625661	1.75504	0.959946	-0.108109	-0.00791629	0.0101982	0.861157	-0.346826	0	0	-0.15701	-0.0526144	-0.0963277	0.216475	-0.332965	0	0	-0.374317	0.152494	0.18488	0.134154	-0.527643	-0.215906	1.75703	1.5708	0	0	0.688981	-0.207335	0.710632	1.38623	1.5708	0	0
4.68	2.84801	1.29701	-1.19913	0.625171	1.75736	0.95997	-0.100995	-0.00966965	0.00367062	0.837924	-0.340828	0	0	-0.158277	-0.0531642	-0.0949659	0.212896	-0.330578	0	0	-0.372965	0.154904	0.179381	0.146227	-0.5287	-0.204162	1.75013	1.5708	0	0	0.683572	-0.210001	0.700602	1.39017	1.5708	0	0
4.69	2.83948	1.2987	-1.19238	0.624711	1.75959	0.960029	-0.0952961	-0.0114742	-0.00368855	0.813187	-0.334107	0	0	-0.159911	-0.0536911	-0.0934391	0.21015	-0.328665	0	0	-0.372467	0.157239	0.174909	0.157492	-0.529961	-0.193213	1.74381	1.5708	0	0	0.679473	-0.212061	0.692043	1.39309	1.5708	0	0
4.7	2.83206	1.29978	-1.18676	0.624386	1.76174	0.960135	-0.090905	-0.0131607	-0.0126558	0.786359	-0.326217	0	0	-0.161849	-0.0542813	-0.0917617	0.207884	-0.326649	0	0	-0.371733	0.158119	0.169778	0.170255	-0.540608	-0.172509	1.73487	1.5708	0	0	0.675922	-0.214275	0.684084	1.39476	1.5708	0	0
4.71	2.82697	1.29902	-1.18333	0.624076	1.76375	0.960277	-0.0885902	-0.0149596	-0.0235689	0.758562	-0.319736	0	0	-0.165135	-0.0551792	-0.0911323	0.207021	-0.32449	0	0	-0.374412	0.161732	0.166149	0.181996	-0.532118	-0.169691	1.72979	1.5708	0	0	0.673529	-0.217012	0.676826	1.39725	1.5708	0	0
4.72	2.8226	1.29952	-1.17823	0.623688	1.76601	0.960387	-0.0869067	-0.0175781	-0.0404421	0.72716	-0.312668	0	0	-0.166797	-0.0559165	-0.0880813	0.206765	-0.322115	0	0	-0.374413	0.164047	0.159594	0.192792	-0.532003	-0.158921	1.7233	1.5708	0	0	0.669914	-0.219815	0.66947	1.39968	1.5708	0	0
4.73	2.81681	1.30348	-1.16916	0.623193	1.76867	0.960286	-0.0826346	-0.0217078	-0.0638155	0.695052	-0.306893	0	0	-0.164333	-0.0560453	-0.0824567	0.207453	-0.320132	0	0	-0.370299	0.166148	0.15157	0.19914	-0.530743	-0.151505	1.7195	1.5708	0	0	0.665233	-0.222683	0.663181	1.40307	1.5708	0	0
4.74	2.81182	1.30548	-1.16343	0.622904	1.77095	0.960274	-0.0797675	-0.0236661	-0.0821474	0.662163	-0.302414	0	0	-0.163739	-0.0563523	-0.0796139	0.208565	-0.318237	0	0	-0.369376	0.168061	0.146364	0.207032	-0.530208	-0.143814	1.71589	1.5708	0	0	0.661795	-0.225105	0.656581	1.40633	1.5708	0	0
4.75	2.80855	1.30628	-1.16097	0.622871	1.77299	0.960342	-0.0787332	-0.0236971	-0.0953051	0.627369	-0.299034	0	0	-0.164398	-0.0566606	-0.0787576	0.209847	-0.316323	0	0	-0.369566	0.167825	0.142638	0.216497	-0.53924	-0.12739	1.71016	1.5708	0	0	0.659887	-0.226895	0.651073	1.4079	1.5708	0	0
4.76	2.80102	1.31077	-1.15468	0.622935	1.7754	0.960159	-0.0745014	-0.0240069	-0.105466	0.593255	-0.296642	0	0	-0.161281	-0.0565265	-0.0782764	0.211234	-0.313396	0	0	-0.37331	0.158036	0.207382	0.127454	-0.540651	-0.244752	1.76136	1.5708	0	0	0.714578	-0.181884	0.72625	1.36365	1.5708	0	0
4.77	2.79329	1.31361	-1.14857	0.622852	1.77766	0.960064	-0.0715023	-0.0238904	-0.112132	0.562229	-0.29472	0	0	-0.159942	-0.0567324	-0.0781485	0.212089	-0.311762	0	0	-0.37238	0.159601	0.204499	0.134431	-0.541078	-0.237555	1.75982	1.5708	0	0	0.710882	-0.184927	0.719997	1.3683	1.5708	0	0
4.78	2.78674	1.31569	-1.14308	0.622823	1.77989	0.960012	-0.0704112	-0.0228968	-0.115904	0.530886	-0.293896	0	0	-0.159141	-0.0572141	-0.0780448	0.213486	-0.309684	0	0	-0.372661	0.161207	0.199279	0.144036	-0.541026	-0.227304	1.75759	1.5708	0	0	0.704537	-0.189048	0.709293	1.37587	1.5708	0	0
4.79	2.78242	1.31622	-1.13952	0.62292	1.78204	0.960045	-0.0713984	-0.0211333	-0.118001	0.501137	-0.293491	0	0	-0.159944	-0.0580915	-0.078317	0.215171	-0.307569	0	0	-0.372952	0.162459	0.195764	0.151764	-0.540834	-0.218999	1.75404	1.5708	0	0	0.700551	-0.191174	0.70167	1.37904	1.5708	0	0
4.8	2.78105	1.31534	-1.13879	0.62313	1.78408	0.960183	-0.0746001	-0.0190747	-0.118189	0.472363	-0.293484	0	0	-0.162501	-0.0590641	-0.0785124	0.216683	-0.305122	0	0	-0.374735	0.163436	0.19278	0.159619	-0.540304	-0.211362	1.75027	1.5708	0	0	0.69777	-0.193152	0.694998	1.38123	1.5708	0	0
4.81	2.77963	1.31618	-1.13664	0.623244	1.78631	0.960198	-0.0760135	-0.017806	-0.120028	0.447501	-0.292809	0	0	-0.163245	-0.0594276	-0.0770183	0.21819	-0.302962	0	0	-0.374588	0.164122	0.190155	0.163878	-0.539332	-0.207483	1.74859	1.5708	0	0	0.695759	-0.194291	0.690627	1.3826	1.5708	0	0
4.82	2.77899	1.31665	-1.13469	0.623355	1.78848	0.960224	-0.0778266	-0.0163397	-0.120909	0.425269	-0.29221	0	0	-0.164208	-0.0599686	-0.0749329	0.219913	-0.300221	0	0	-0.374184	0.16513	0.18649	0.169183	-0.538477	-0.201982	1.74562	1.5708	0	0	0.693736	-0.195733	0.68627	1.38315	1.5708	0	0
4.83	2.77777	1.31512	-1.13374	0.623664	1.79034	0.960406	-0.0802394	-0.0136174	-0.117342	0.407112	-0.291875	0	0	-0.166981	-0.0614906	-0.0748178	0.221576	-0.298013	0	0	-0.376468	0.166179	0.186067	0.173921	-0.538291	-0.19849	1.74306	1.5708	0	0	0.693965	-0.195691	0.683401	1.38209	1.5708	0	0
4.84	2.77618	1.3115	-1.13396	0.624164	1.79188	0.960742	-0.0841855	-0.00933085	-0.109319	0.391217	-0.29202	0	0	-0.171722	-0.0640311	-0.0768936	0.223074	-0.296092	0	0	-0.38176	0.167628	0.188228	0.179139	-0.538448	-0.195964	1.74117	1.5708	0	0	0.695695	-0.194893	0.68091	1.38044	1.5708	0	0
4.85	2.77555	1.30316	-1.13991	0.625092	1.79265	0.961442	-0.0912361	-0.00282441	-0.0910421	0.378142	-0.293862	0	0	-0.18138	-0.0679764	-0.0847044	0.224374	-0.294859	0	0	-0.394851	0.168937	0.196886	0.186148	-0.540383	-0.194751	1.74089	1.5708	0	0	0.700567	-0.192353	0.678332	1.37827	1.5708	0	0
4.86	2.77905	1.30052	-1.14312	0.625573	1.79432	0.961679	-0.0958256	-0.000407684	-0.0855914	0.366201	-0.295613	0	0	-0.185402	-0.0693161	-0.0863889	0.226324	-0.293604	0	0	-0.399321	0.169102	0.198447	0.187924	-0.539923	-0.195515	1.74149	1.5708	0	0	0.702976	-0.190864	0.677307	1.37606	1.5708	0	0
4.87	2.78586	1.30215	-1.14463	0.625636	1.79665	0.961579	-0.0987066	-0.00127053	-0.0897485	0.35467	-0.297683	0	0	-0.185114	-0.0685091	-0.0834136	0.229004	-0.292057	0	0	-0.397161	0.168037	0.196786	0.183054	-0.538521	-0.200822	1.74362	1.5708	0	0	0.705177	-0.188274	0.679776	1.37176	1.5708	0	0
4.88	2.79091	1.30132	-1.14837	0.625986	1.79842	0.961679	-0.102081	-0.000594817	-0.0865748	0.346675	-0.301035	0	0	-0.187158	-0.0687909	-0.0844326	0.231689	-0.290523	0	0	-0.399305	0.16693	0.199944	0.179592	-0.538368	-0.206715	1.74607	1.5708	0	0	0.709456	-0.184662	0.682641	1.36696	1.5708	0	0
4.89	2.80422	1.29995	-1.15554	0.626007	1.80066	0.961612	-0.108748	-0.00232585	-0.0925668	0.339172	-0.305425	0	0	-0.190433	-0.0681472	-0.0823443	0.234782	-0.287953	0	0	-0.395219	0.169365	0.1825	0.197281	-0.5335	-0.184249	1.73178	1.5708	0	0	0.703096	-0.193734	0.674543	1.36619	1.5708	0	0
4.9	2.81143	1.30061	-1.15918	0.626279	1.80285	0.961448	-0.111646	-0.00323671	-0.0937636	0.335118	-0.308393	0	0	-0.191805	-0.0675611	-0.0816233	0.236391	-0.286308	0	0	-0.393996	0.168735	0.176674	0.200866	-0.530712	-0.179792	1.72972	1.5708	0	0	0.70003	-0.195296	0.669452	1.36722	1.5708	0	0
4.91	2.81569	1.29902	-1.16323	0.62688	1.80456	0.961436	-0.115725	-0.00211527	-0.088324	0.331724	-0.312845	0	0	-0.195163	-0.0682108	-0.0838065	0.237961	-0.28428	0	0	-0.396656	0.168504	0.175281	0.205576	-0.529383	-0.175921	1.72847	1.5708	0	0	0.69867	-0.195787	0.664078	1.36808	1.5708	0	0
4.92	2.82082	1.29593	-1.16936	0.627705	1.8061	0.961503	-0.121665	-0.000356533	-0.0799633	0.328154	-0.318651	0	0	-0.200281	-0.0693522	-0.0877155	0.239448	-0.282217	0	0	-0.401793	0.167836	0.176294	0.209703	-0.5284	-0.173747	1.72839	1.5708	0	0	0.698602	-0.195729	0.659349	1.36898	1.5708	0	0
4.93	2.83313	1.29526	-1.17791	0.62824	1.80832	0.961304	-0.128724	-0.0015925	-0.0803782	0.322579	-0.324919	0	0	-0.20387	-0.0684851	-0.0879957	0.24085	-0.280055	0	0	-0.402632	0.165423	0.172632	0.209989	-0.525795	-0.17345	1.72896	1.5708	0	0	0.697369	-0.196013	0.655955	1.36961	1.5708	0	0
4.94	2.84175	1.29287	-1.18726	0.629184	1.81	0.961252	-0.135352	-0.00126557	-0.0738666	0.319072	-0.331233	0	0	-0.209548	-0.0683717	-0.0909593	0.240851	-0.278362	0	0	-0.407773	0.16269	0.175408	0.209796	-0.524775	-0.175854	1.73199	1.5708	0	0	0.69859	-0.194636	0.653429	1.37025	1.5708	0	0
4.95	2.85825	1.29142	-1.20157	0.629927	1.81208	0.961012	-0.144386	-0.00322378	-0.0714388	0.312184	-0.339241	0	0	-0.215533	-0.0662277	-0.0922231	0.240064	-0.276399	0	0	-0.411423	0.15791	0.176246	0.205749	-0.52254	-0.181746	1.7369	1.5708	0	0	0.699885	-0.192683	0.652155	1.37074	1.5708	0	0
4.96	2.88021	1.29231	-1.2173	0.630452	1.81468	0.960569	-0.154303	-0.00730768	-0.077333	0.301199	-0.347985	0	0	-0.219853	-0.0624127	-0.0889549	0.238727	-0.274171	0	0	-0.411473	0.151632	0.173693	0.197508	-0.518636	-0.190455	1.74321	1.5708	0	0	0.700547	-0.191067	0.652674	1.37148	1.5708	0	0
